<svg xmlns="http://www.w3.org/2000/svg" viewBox="0 0 800 600" width="800" height="600" font-family="'Segoe UI',system-ui,-apple-system,sans-serif">
<defs>
<linearGradient id="bg776" x1="0" y1="0" x2="0" y2="1"><stop offset="0" stop-color="#fbeee2"/><stop offset="1" stop-color="#e8c3a0"/></linearGradient>
<filter id="sh776" x="-30%" y="-30%" width="160%" height="160%"><feDropShadow dx="0" dy="10" stdDeviation="14" flood-color="#0b1220" flood-opacity="0.18"/></filter>
</defs>
<rect width="800" height="600" rx="36" fill="url(#bg776)"/>
<circle cx="678" cy="120" r="150" fill="#ffffff" opacity="0.14"/>
<circle cx="120" cy="500" r="120" fill="#ffffff" opacity="0.10"/>
<g filter="url(#sh776)"><rect x="60" y="96" width="320" height="348" rx="28" fill="#ffffff"/></g>
<g transform="translate(110.0,160.0) scale(2.2)"><rect x="6" y="44" width="20" height="50" rx="2" fill="#7d8fa6"/><rect x="30" y="26" width="22" height="68" rx="2" fill="#5f7391"/><rect x="56" y="38" width="18" height="56" rx="2" fill="#8fa2b8"/><rect x="78" y="52" width="18" height="42" rx="2" fill="#6c7f9b"/><rect x="10" y="52" width="5" height="6" rx="1" fill="#f7c948"/><rect x="18" y="52" width="5" height="6" rx="1" fill="#f7c948"/><rect x="10" y="66" width="5" height="6" rx="1" fill="#f7c948"/><rect x="18" y="66" width="5" height="6" rx="1" fill="#f7c948"/><rect x="34" y="34" width="5" height="6" rx="1" fill="#f7c948"/><rect x="43" y="34" width="5" height="6" rx="1" fill="#f7c948"/><rect x="34" y="50" width="5" height="6" rx="1" fill="#f7c948"/><rect x="43" y="50" width="5" height="6" rx="1" fill="#f7c948"/><rect x="34" y="66" width="5" height="6" rx="1" fill="#f7c948"/><rect x="60" y="46" width="5" height="6" rx="1" fill="#f7c948"/><rect x="68" y="46" width="5" height="6" rx="1" fill="#f7c948"/><rect x="60" y="62" width="5" height="6" rx="1" fill="#f7c948"/><rect x="68" y="62" width="5" height="6" rx="1" fill="#f7c948"/><rect x="82" y="60" width="5" height="6" rx="1" fill="#f7c948"/><rect x="90" y="60" width="5" height="6" rx="1" fill="#f7c948"/><rect x="82" y="74" width="5" height="6" rx="1" fill="#f7c948"/></g>
<circle cx="86" cy="122" r="17" fill="#8a5320"/>
<text x="86" y="128" text-anchor="middle" font-size="19" font-weight="800" fill="#ffffff">1</text>
<g filter="url(#sh776)"><rect x="420" y="96" width="320" height="348" rx="28" fill="#ffffff"/></g>
<g transform="translate(470.0,160.0) scale(2.2)"><path d="M 50 8 q 26 0 26 28 q 0 22 -26 56 q -26 -34 -26 -56 q 0 -28 26 -28 Z" fill="#e0483d" stroke="#b8382e" stroke-width="3" stroke-linecap="round" stroke-linejoin="round"/><circle cx="50" cy="36" r="11" fill="#ffffff"/><path d="M 44 34 q 6 -8 12 0 q -6 8 -12 0 Z" fill="#e0483d"/></g>
<circle cx="446" cy="122" r="17" fill="#8a5320"/>
<text x="446" y="128" text-anchor="middle" font-size="19" font-weight="800" fill="#ffffff">2</text>
<text x="400" y="512" text-anchor="middle" font-size="34" font-weight="800" fill="#8a5320">Home and Living</text>
<text x="400" y="548" text-anchor="middle" font-size="17" font-weight="600" letter-spacing="3" fill="#8a5320" opacity="0.55">A2 &#183; SPREEKEXAMEN</text>
</svg>
