<svg xmlns="http://www.w3.org/2000/svg" viewBox="0 0 800 600" width="800" height="600" font-family="'Segoe UI',system-ui,-apple-system,sans-serif">
<defs>
<linearGradient id="bg802" x1="0" y1="0" x2="0" y2="1"><stop offset="0" stop-color="#e6f4ff"/><stop offset="1" stop-color="#aad4f5"/></linearGradient>
<filter id="sh802" x="-30%" y="-30%" width="160%" height="160%"><feDropShadow dx="0" dy="10" stdDeviation="14" flood-color="#0b1220" flood-opacity="0.18"/></filter>
</defs>
<rect width="800" height="600" rx="36" fill="url(#bg802)"/>
<circle cx="678" cy="120" r="150" fill="#ffffff" opacity="0.14"/>
<circle cx="120" cy="500" r="120" fill="#ffffff" opacity="0.10"/>
<g filter="url(#sh802)"><rect x="60" y="96" width="320" height="348" rx="28" fill="#ffffff"/></g>
<g transform="translate(110.0,160.0) scale(2.2)"><ellipse cx="38" cy="38" rx="20" ry="15" fill="#d6dee7"/><ellipse cx="58" cy="34" rx="22" ry="18" fill="#d6dee7"/><ellipse cx="70" cy="42" rx="15" ry="11" fill="#d6dee7"/><rect x="30" y="40" width="50" height="12" rx="6" fill="#d6dee7"/><line x1="34" y1="62" x2="29" y2="80" stroke="#4aa3d8" stroke-width="5" stroke-linecap="round"/><line x1="50" y1="62" x2="45" y2="80" stroke="#4aa3d8" stroke-width="5" stroke-linecap="round"/><line x1="66" y1="62" x2="61" y2="80" stroke="#4aa3d8" stroke-width="5" stroke-linecap="round"/></g>
<circle cx="86" cy="122" r="17" fill="#1f6aa8"/>
<text x="86" y="128" text-anchor="middle" font-size="19" font-weight="800" fill="#ffffff">1</text>
<g filter="url(#sh802)"><rect x="420" y="96" width="320" height="348" rx="28" fill="#ffffff"/></g>
<g transform="translate(470.0,160.0) scale(2.2)"><line x1="90.0" y1="30.0" x2="100.0" y2="30.0" stroke="#f7c948" stroke-width="5" stroke-linecap="round"/><line x1="84.14213562373095" y1="44.14213562373095" x2="91.21320343559643" y2="51.21320343559643" stroke="#f7c948" stroke-width="5" stroke-linecap="round"/><line x1="70.0" y1="50.0" x2="70.0" y2="60.0" stroke="#f7c948" stroke-width="5" stroke-linecap="round"/><line x1="55.85786437626905" y1="44.14213562373095" x2="48.78679656440357" y2="51.21320343559643" stroke="#f7c948" stroke-width="5" stroke-linecap="round"/><line x1="50.0" y1="30.000000000000004" x2="40.0" y2="30.000000000000004" stroke="#f7c948" stroke-width="5" stroke-linecap="round"/><line x1="55.85786437626905" y1="15.85786437626905" x2="48.78679656440357" y2="8.786796564403577" stroke="#f7c948" stroke-width="5" stroke-linecap="round"/><line x1="70.0" y1="10.0" x2="70.0" y2="0.0" stroke="#f7c948" stroke-width="5" stroke-linecap="round"/><line x1="84.14213562373095" y1="15.857864376269045" x2="91.21320343559643" y2="8.78679656440357" stroke="#f7c948" stroke-width="5" stroke-linecap="round"/><circle cx="70" cy="30" r="16" fill="#f7c948"/><ellipse cx="38" cy="58" rx="20" ry="15" fill="#eef4f8"/><ellipse cx="58" cy="54" rx="22" ry="18" fill="#eef4f8"/><ellipse cx="70" cy="62" rx="15" ry="11" fill="#eef4f8"/><rect x="30" y="60" width="50" height="12" rx="6" fill="#eef4f8"/><path d="M 20 62 q 8 -20 26 -14 q 12 -8 22 4 q 12 0 12 14" fill="none" stroke="#9aa5b1" stroke-width="4" stroke-linecap="round" stroke-linejoin="round"/></g>
<circle cx="446" cy="122" r="17" fill="#1f6aa8"/>
<text x="446" y="128" text-anchor="middle" font-size="19" font-weight="800" fill="#ffffff">2</text>
<text x="400" y="512" text-anchor="middle" font-size="34" font-weight="800" fill="#1f6aa8">Weather and Seasons</text>
<text x="400" y="548" text-anchor="middle" font-size="17" font-weight="600" letter-spacing="3" fill="#1f6aa8" opacity="0.55">A2 &#183; SPREEKEXAMEN</text>
</svg>
