<svg xmlns="http://www.w3.org/2000/svg" viewBox="0 0 800 600" width="800" height="600" font-family="'Segoe UI',system-ui,-apple-system,sans-serif">
<defs>
<linearGradient id="bg804" x1="0" y1="0" x2="0" y2="1"><stop offset="0" stop-color="#eaf0fb"/><stop offset="1" stop-color="#b9c8ec"/></linearGradient>
<filter id="sh804" x="-30%" y="-30%" width="160%" height="160%"><feDropShadow dx="0" dy="10" stdDeviation="14" flood-color="#0b1220" flood-opacity="0.18"/></filter>
</defs>
<rect width="800" height="600" rx="36" fill="url(#bg804)"/>
<circle cx="678" cy="120" r="150" fill="#ffffff" opacity="0.14"/>
<circle cx="120" cy="500" r="120" fill="#ffffff" opacity="0.10"/>
<g filter="url(#sh804)"><rect x="36" y="110" width="228" height="320" rx="28" fill="#ffffff"/></g>
<g transform="translate(65.0,185.0) scale(1.7)"><line x1="22" y1="18" x2="32" y2="26" stroke="#33404f" stroke-width="6" stroke-linecap="round"/><line x1="78" y1="18" x2="68" y2="26" stroke="#33404f" stroke-width="6" stroke-linecap="round"/><circle cx="50" cy="50" r="36" fill="#ffffff" stroke="#33404f" stroke-width="5"/><line x1="50.0" y1="22.0" x2="50.0" y2="18.0" stroke="#9aa5b1" stroke-width="3" stroke-linecap="round"/><line x1="64.0" y1="25.751288694035715" x2="66.0" y2="22.28718707889796" stroke="#9aa5b1" stroke-width="3" stroke-linecap="round"/><line x1="74.24871130596428" y1="36.0" x2="77.71281292110203" y2="34.0" stroke="#9aa5b1" stroke-width="3" stroke-linecap="round"/><line x1="78.0" y1="50.0" x2="82.0" y2="50.0" stroke="#9aa5b1" stroke-width="3" stroke-linecap="round"/><line x1="74.24871130596429" y1="63.99999999999999" x2="77.71281292110204" y2="66.0" stroke="#9aa5b1" stroke-width="3" stroke-linecap="round"/><line x1="64.0" y1="74.24871130596429" x2="66.0" y2="77.71281292110204" stroke="#9aa5b1" stroke-width="3" stroke-linecap="round"/><line x1="50.0" y1="78.0" x2="50.00000000000001" y2="82.0" stroke="#9aa5b1" stroke-width="3" stroke-linecap="round"/><line x1="36.00000000000001" y1="74.24871130596429" x2="34.00000000000001" y2="77.71281292110204" stroke="#9aa5b1" stroke-width="3" stroke-linecap="round"/><line x1="25.751288694035726" y1="64.00000000000001" x2="22.287187078897972" y2="66.00000000000001" stroke="#9aa5b1" stroke-width="3" stroke-linecap="round"/><line x1="22.0" y1="50.00000000000001" x2="18.0" y2="50.00000000000001" stroke="#9aa5b1" stroke-width="3" stroke-linecap="round"/><line x1="25.75128869403572" y1="36.0" x2="22.287187078897965" y2="34.0" stroke="#9aa5b1" stroke-width="3" stroke-linecap="round"/><line x1="35.999999999999986" y1="25.751288694035726" x2="33.999999999999986" y2="22.287187078897972" stroke="#9aa5b1" stroke-width="3" stroke-linecap="round"/><line x1="50" y1="50" x2="50.0" y2="68.0" stroke="#33404f" stroke-width="6" stroke-linecap="round"/><line x1="50" y1="50" x2="50.0" y2="24.0" stroke="#33404f" stroke-width="4" stroke-linecap="round"/><circle cx="50" cy="50" r="4" fill="#e0483d"/></g>
<circle cx="62" cy="136" r="17" fill="#2f4a86"/>
<text x="62" y="142" text-anchor="middle" font-size="19" font-weight="800" fill="#ffffff">1</text>
<g filter="url(#sh804)"><rect x="286" y="110" width="228" height="320" rx="28" fill="#ffffff"/></g>
<g transform="translate(315.0,185.0) scale(1.7)"><rect x="0" y="0" width="100" height="100" rx="4" fill="#dfe4e8"/><line x1="50" y1="0" x2="50" y2="100" stroke="#ffffff" stroke-width="4" stroke-linecap="round"/><g transform="translate(4,2) scale(0.42)"><path d="M 8 66 L 12 46 q 2 -6 8 -6 L 80 40 q 6 0 8 6 L 92 66 Z" fill="#e0483d"/><path d="M 24 42 L 28 26 q 1 -4 6 -4 L 66 22 q 5 0 6 4 L 76 42 Z" fill="#8ecdf0" stroke="#e0483d" stroke-width="3" stroke-linecap="round" stroke-linejoin="round"/><rect x="6" y="60" width="88" height="12" rx="5" fill="#e0483d"/><circle cx="26" cy="74" r="11" fill="#33404f"/><circle cx="26" cy="74" r="5" fill="#d6dee7"/><circle cx="74" cy="74" r="11" fill="#33404f"/><circle cx="74" cy="74" r="5" fill="#d6dee7"/></g><g transform="translate(4,40) scale(0.42)"><path d="M 8 66 L 12 46 q 2 -6 8 -6 L 80 40 q 6 0 8 6 L 92 66 Z" fill="#3f7fd0"/><path d="M 24 42 L 28 26 q 1 -4 6 -4 L 66 22 q 5 0 6 4 L 76 42 Z" fill="#8ecdf0" stroke="#3f7fd0" stroke-width="3" stroke-linecap="round" stroke-linejoin="round"/><rect x="6" y="60" width="88" height="12" rx="5" fill="#3f7fd0"/><circle cx="26" cy="74" r="11" fill="#33404f"/><circle cx="26" cy="74" r="5" fill="#d6dee7"/><circle cx="74" cy="74" r="11" fill="#33404f"/><circle cx="74" cy="74" r="5" fill="#d6dee7"/></g><g transform="translate(52,12) scale(0.42)"><path d="M 8 66 L 12 46 q 2 -6 8 -6 L 80 40 q 6 0 8 6 L 92 66 Z" fill="#4caf50"/><path d="M 24 42 L 28 26 q 1 -4 6 -4 L 66 22 q 5 0 6 4 L 76 42 Z" fill="#8ecdf0" stroke="#4caf50" stroke-width="3" stroke-linecap="round" stroke-linejoin="round"/><rect x="6" y="60" width="88" height="12" rx="5" fill="#4caf50"/><circle cx="26" cy="74" r="11" fill="#33404f"/><circle cx="26" cy="74" r="5" fill="#d6dee7"/><circle cx="74" cy="74" r="11" fill="#33404f"/><circle cx="74" cy="74" r="5" fill="#d6dee7"/></g><g transform="translate(52,52) scale(0.42)"><path d="M 8 66 L 12 46 q 2 -6 8 -6 L 80 40 q 6 0 8 6 L 92 66 Z" fill="#f28c28"/><path d="M 24 42 L 28 26 q 1 -4 6 -4 L 66 22 q 5 0 6 4 L 76 42 Z" fill="#8ecdf0" stroke="#f28c28" stroke-width="3" stroke-linecap="round" stroke-linejoin="round"/><rect x="6" y="60" width="88" height="12" rx="5" fill="#f28c28"/><circle cx="26" cy="74" r="11" fill="#33404f"/><circle cx="26" cy="74" r="5" fill="#d6dee7"/><circle cx="74" cy="74" r="11" fill="#33404f"/><circle cx="74" cy="74" r="5" fill="#d6dee7"/></g></g>
<circle cx="312" cy="136" r="17" fill="#2f4a86"/>
<text x="312" y="142" text-anchor="middle" font-size="19" font-weight="800" fill="#ffffff">2</text>
<g filter="url(#sh804)"><rect x="536" y="110" width="228" height="320" rx="28" fill="#ffffff"/></g>
<g transform="translate(565.0,185.0) scale(1.7)"><path d="M 22 16 q 12 -6 18 4 l 6 12 q 3 6 -3 10 l -6 4 q 6 16 20 24 l 4 -6 q 4 -6 10 -3 l 12 6 q 10 6 4 18 q -6 12 -22 8 q -22 -6 -38 -22 q -16 -16 -22 -38 q -4 -16 8 -22 Z" fill="#2e7d32"/><path d="M 66 20 q 12 4 14 16 M 62 32 q 6 2 8 8" fill="none" stroke="#4caf50" stroke-width="4" stroke-linecap="round" stroke-linejoin="round"/></g>
<circle cx="562" cy="136" r="17" fill="#2f4a86"/>
<text x="562" y="142" text-anchor="middle" font-size="19" font-weight="800" fill="#ffffff">3</text>
<text x="400" y="512" text-anchor="middle" font-size="34" font-weight="800" fill="#2f4a86">Job and Workplace</text>
<text x="400" y="548" text-anchor="middle" font-size="17" font-weight="600" letter-spacing="3" fill="#2f4a86" opacity="0.55">A2 &#183; SPREEKEXAMEN</text>
</svg>
