<svg xmlns="http://www.w3.org/2000/svg" viewBox="0 0 800 600" width="800" height="600" font-family="'Segoe UI',system-ui,-apple-system,sans-serif">
<defs>
<linearGradient id="bg816" x1="0" y1="0" x2="0" y2="1"><stop offset="0" stop-color="#e4f2fe"/><stop offset="1" stop-color="#a9d4f7"/></linearGradient>
<filter id="sh816" x="-30%" y="-30%" width="160%" height="160%"><feDropShadow dx="0" dy="10" stdDeviation="14" flood-color="#0b1220" flood-opacity="0.18"/></filter>
</defs>
<rect width="800" height="600" rx="36" fill="url(#bg816)"/>
<circle cx="678" cy="120" r="150" fill="#ffffff" opacity="0.14"/>
<circle cx="120" cy="500" r="120" fill="#ffffff" opacity="0.10"/>
<g filter="url(#sh816)"><rect x="60" y="96" width="320" height="348" rx="28" fill="#ffffff"/></g>
<g transform="translate(110.0,160.0) scale(2.2)"><polygon points="6,34 50,12 94,34" fill="#c9b18a"/><rect x="6" y="34" width="88" height="8" rx="2" fill="#b9a179"/><rect x="14" y="42" width="12" height="40" rx="2" fill="#ffffff" stroke="#9aa5b1" stroke-width="2"/><rect x="32" y="42" width="12" height="40" rx="2" fill="#ffffff" stroke="#9aa5b1" stroke-width="2"/><rect x="50" y="42" width="12" height="40" rx="2" fill="#ffffff" stroke="#9aa5b1" stroke-width="2"/><rect x="68" y="42" width="12" height="40" rx="2" fill="#ffffff" stroke="#9aa5b1" stroke-width="2"/><rect x="4" y="82" width="92" height="10" rx="2" fill="#b9a179"/></g>
<circle cx="86" cy="122" r="17" fill="#1c5f9e"/>
<text x="86" y="128" text-anchor="middle" font-size="19" font-weight="800" fill="#ffffff">1</text>
<g filter="url(#sh816)"><rect x="420" y="96" width="320" height="348" rx="28" fill="#ffffff"/></g>
<g transform="translate(470.0,160.0) scale(2.2)"><rect x="8" y="30" width="84" height="56" rx="8" fill="#33404f"/><rect x="34" y="20" width="26" height="12" rx="4" fill="#68757f"/><circle cx="50" cy="58" r="20" fill="#d6dee7" stroke="#68757f" stroke-width="3"/><circle cx="50" cy="58" r="12" fill="#8ecdf0"/><circle cx="45" cy="53" r="4" fill="#ffffff"/><circle cx="78" cy="42" r="5" fill="#e0483d"/></g>
<circle cx="446" cy="122" r="17" fill="#1c5f9e"/>
<text x="446" y="128" text-anchor="middle" font-size="19" font-weight="800" fill="#ffffff">2</text>
<text x="400" y="512" text-anchor="middle" font-size="34" font-weight="800" fill="#1c5f9e">Travel</text>
<text x="400" y="548" text-anchor="middle" font-size="17" font-weight="600" letter-spacing="3" fill="#1c5f9e" opacity="0.55">A2 &#183; SPREEKEXAMEN</text>
</svg>
