<svg xmlns="http://www.w3.org/2000/svg" viewBox="0 0 800 600" width="800" height="600" font-family="'Segoe UI',system-ui,-apple-system,sans-serif">
<defs>
<linearGradient id="bg824" x1="0" y1="0" x2="0" y2="1"><stop offset="0" stop-color="#eafaef"/><stop offset="1" stop-color="#b4e6bf"/></linearGradient>
<filter id="sh824" x="-30%" y="-30%" width="160%" height="160%"><feDropShadow dx="0" dy="10" stdDeviation="14" flood-color="#0b1220" flood-opacity="0.18"/></filter>
</defs>
<rect width="800" height="600" rx="36" fill="url(#bg824)"/>
<circle cx="678" cy="120" r="150" fill="#ffffff" opacity="0.14"/>
<circle cx="120" cy="500" r="120" fill="#ffffff" opacity="0.10"/>
<g filter="url(#sh824)"><rect x="60" y="96" width="320" height="348" rx="28" fill="#ffffff"/></g>
<g transform="translate(110.0,160.0) scale(2.2)"><ellipse cx="50" cy="54" rx="44" ry="20" fill="#d9a05b" stroke="#8d6042" stroke-width="3"/><rect x="46" y="62" width="8" height="30" fill="#8d6042"/><rect x="30" y="88" width="40" height="6" rx="3" fill="#6b4630"/><circle cx="34" cy="50" r="10" fill="#ffffff" stroke="#9aa5b1" stroke-width="2"/><circle cx="66" cy="50" r="10" fill="#ffffff" stroke="#9aa5b1" stroke-width="2"/><circle cx="20" cy="18.82" r="6.82" fill="#f0c49b"/><path d="M 13.18 17.797 a 6.82 6.82 0 0 1 13.64 0 a 6.82 4.774 0 0 0 -13.64 0 Z" fill="#3c2f2a"/><circle cx="17.613" cy="19.6384" r="0.7502000000000001" fill="#33404f"/><circle cx="22.387" cy="19.6384" r="0.7502000000000001" fill="#33404f"/><path d="M 10.7 42.38 L 10.7 32.77 a 9.3 7.440000000000001 0 0 1 18.6 0 L 29.3 42.38 Z" fill="#3f7fd0"/><circle cx="80" cy="18.82" r="6.82" fill="#f0c49b"/><path d="M 73.18 17.797 a 6.82 6.82 0 0 1 13.64 0 a 6.82 4.774 0 0 0 -13.64 0 Z" fill="#3c2f2a"/><circle cx="77.613" cy="19.6384" r="0.7502000000000001" fill="#33404f"/><circle cx="82.387" cy="19.6384" r="0.7502000000000001" fill="#33404f"/><path d="M 70.7 42.38 L 70.7 32.77 a 9.3 7.440000000000001 0 0 1 18.6 0 L 89.3 42.38 Z" fill="#e87fa8"/></g>
<circle cx="86" cy="122" r="17" fill="#2f7d43"/>
<text x="86" y="128" text-anchor="middle" font-size="19" font-weight="800" fill="#ffffff">1</text>
<g filter="url(#sh824)"><rect x="420" y="96" width="320" height="348" rx="28" fill="#ffffff"/></g>
<g transform="translate(470.0,160.0) scale(2.2)"><rect x="20" y="44" width="56" height="44" rx="3" fill="#f7ecd4" stroke="#8d6042" stroke-width="3"/><polygon points="14,46 48,16 82,46" fill="#e0483d"/><rect x="42" y="62" width="14" height="26" rx="2" fill="#8d6042"/><rect x="26" y="54" width="12" height="12" rx="2" fill="#8ecdf0"/><rect x="60" y="54" width="12" height="12" rx="2" fill="#8ecdf0"/><circle cx="88" cy="70" r="10" fill="#2e7d32"/><rect x="86" y="78" width="4" height="12" fill="#8d6042"/><rect x="0" y="88" width="100" height="8" rx="2" fill="#4caf50"/></g>
<circle cx="446" cy="122" r="17" fill="#2f7d43"/>
<text x="446" y="128" text-anchor="middle" font-size="19" font-weight="800" fill="#ffffff">2</text>
<text x="400" y="512" text-anchor="middle" font-size="34" font-weight="800" fill="#2f7d43">Food and Shopping</text>
<text x="400" y="548" text-anchor="middle" font-size="17" font-weight="600" letter-spacing="3" fill="#2f7d43" opacity="0.55">A2 &#183; SPREEKEXAMEN</text>
</svg>
