<svg xmlns="http://www.w3.org/2000/svg" viewBox="0 0 800 600" width="800" height="600" font-family="'Segoe UI',system-ui,-apple-system,sans-serif">
<defs>
<linearGradient id="bg846" x1="0" y1="0" x2="0" y2="1"><stop offset="0" stop-color="#e4f2fe"/><stop offset="1" stop-color="#a9d4f7"/></linearGradient>
<filter id="sh846" x="-30%" y="-30%" width="160%" height="160%"><feDropShadow dx="0" dy="10" stdDeviation="14" flood-color="#0b1220" flood-opacity="0.18"/></filter>
</defs>
<rect width="800" height="600" rx="36" fill="url(#bg846)"/>
<circle cx="678" cy="120" r="150" fill="#ffffff" opacity="0.14"/>
<circle cx="120" cy="500" r="120" fill="#ffffff" opacity="0.10"/>
<g filter="url(#sh846)"><rect x="36" y="110" width="228" height="320" rx="28" fill="#ffffff"/></g>
<g transform="translate(65.0,185.0) scale(1.7)"><path d="M 13 44 q 0 -16 11 -16 q 11 0 11 16 q -11 8 -22 0 Z" fill="#e0483d"/><line x1="24" y1="44" x2="24" y2="84" stroke="#2e7d32" stroke-width="4" stroke-linecap="round"/><path d="M 24 64 q -14 -4 -16 8 q 12 4 16 -8 Z" fill="#4caf50"/><path d="M 39 36 q 0 -16 11 -16 q 11 0 11 16 q -11 8 -22 0 Z" fill="#f7c948"/><line x1="50" y1="36" x2="50" y2="76" stroke="#2e7d32" stroke-width="4" stroke-linecap="round"/><path d="M 50 56 q -14 -4 -16 8 q 12 4 16 -8 Z" fill="#4caf50"/><path d="M 65 46 q 0 -16 11 -16 q 11 0 11 16 q -11 8 -22 0 Z" fill="#e87fa8"/><line x1="76" y1="46" x2="76" y2="86" stroke="#2e7d32" stroke-width="4" stroke-linecap="round"/><path d="M 76 66 q -14 -4 -16 8 q 12 4 16 -8 Z" fill="#4caf50"/><rect x="0" y="88" width="100" height="10" rx="2" fill="#4caf50"/></g>
<circle cx="62" cy="136" r="17" fill="#1c5f9e"/>
<text x="62" y="142" text-anchor="middle" font-size="19" font-weight="800" fill="#ffffff">1</text>
<g filter="url(#sh846)"><rect x="286" y="110" width="228" height="320" rx="28" fill="#ffffff"/></g>
<g transform="translate(315.0,185.0) scale(1.7)"><rect x="0" y="86" width="100" height="12" rx="2" fill="#4caf50"/><polygon points="34,86 42,34 58,34 66,86" fill="#b9865c"/><polygon points="38,36 62,36 50,22" fill="#6b4630"/><line x1="50" y1="40" x2="22" y2="14" stroke="#8d6042" stroke-width="5" stroke-linecap="round"/><line x1="50" y1="40" x2="78" y2="66" stroke="#8d6042" stroke-width="5" stroke-linecap="round"/><line x1="50" y1="40" x2="24" y2="66" stroke="#8d6042" stroke-width="5" stroke-linecap="round"/><line x1="50" y1="40" x2="76" y2="14" stroke="#8d6042" stroke-width="5" stroke-linecap="round"/><circle cx="50" cy="40" r="5" fill="#33404f"/><rect x="44" y="66" width="12" height="20" rx="2" fill="#6b4630"/></g>
<circle cx="312" cy="136" r="17" fill="#1c5f9e"/>
<text x="312" y="142" text-anchor="middle" font-size="19" font-weight="800" fill="#ffffff">2</text>
<g filter="url(#sh846)"><rect x="536" y="110" width="228" height="320" rx="28" fill="#ffffff"/></g>
<g transform="translate(565.0,185.0) scale(1.7)"><path d="M 12 58 q 0 -14 16 -14 L 54 44 q 26 0 32 22 q 4 16 -12 18 L 26 84 q -14 0 -14 -14 Z" fill="#f7c948" stroke="#d9a300" stroke-width="3" stroke-linecap="round" stroke-linejoin="round"/><path d="M 30 52 q 12 -6 22 4" fill="none" stroke="#d9a300" stroke-width="3" stroke-linecap="round" stroke-linejoin="round"/><circle cx="40" cy="62" r="4" fill="#e0483d"/><circle cx="56" cy="66" r="4" fill="#e0483d"/><circle cx="48" cy="72" r="4" fill="#3f7fd0"/></g>
<circle cx="562" cy="136" r="17" fill="#1c5f9e"/>
<text x="562" y="142" text-anchor="middle" font-size="19" font-weight="800" fill="#ffffff">3</text>
<text x="400" y="512" text-anchor="middle" font-size="34" font-weight="800" fill="#1c5f9e">Travel</text>
<text x="400" y="548" text-anchor="middle" font-size="17" font-weight="600" letter-spacing="3" fill="#1c5f9e" opacity="0.55">A2 &#183; SPREEKEXAMEN</text>
</svg>
