<svg xmlns="http://www.w3.org/2000/svg" viewBox="0 0 800 600" width="800" height="600" font-family="'Segoe UI',system-ui,-apple-system,sans-serif">
<defs>
<linearGradient id="bg861" x1="0" y1="0" x2="0" y2="1"><stop offset="0" stop-color="#fbeee2"/><stop offset="1" stop-color="#e8c3a0"/></linearGradient>
<filter id="sh861" x="-30%" y="-30%" width="160%" height="160%"><feDropShadow dx="0" dy="10" stdDeviation="14" flood-color="#0b1220" flood-opacity="0.18"/></filter>
</defs>
<rect width="800" height="600" rx="36" fill="url(#bg861)"/>
<circle cx="678" cy="120" r="150" fill="#ffffff" opacity="0.14"/>
<circle cx="120" cy="500" r="120" fill="#ffffff" opacity="0.10"/>
<g filter="url(#sh861)"><rect x="60" y="96" width="320" height="348" rx="28" fill="#ffffff"/></g>
<g transform="translate(110.0,160.0) scale(2.2)"><circle cx="50" cy="50" r="36" fill="#8ecdf0" stroke="#2a5da8" stroke-width="4"/><path d="M 50 14 q -18 36 0 72 M 50 14 q 18 36 0 72" fill="none" stroke="#2a5da8" stroke-width="3" stroke-linecap="round" stroke-linejoin="round"/><line x1="14" y1="50" x2="86" y2="50" stroke="#2a5da8" stroke-width="3" stroke-linecap="round"/><path d="M 26 32 q 14 6 10 16 q -4 10 -14 6 Z" fill="#4caf50"/><path d="M 56 58 q 16 -4 18 8 q 2 12 -12 12 q -12 0 -6 -20 Z" fill="#4caf50"/><path d="M 58 24 q 12 0 14 10 q -14 4 -14 -10 Z" fill="#4caf50"/></g>
<circle cx="86" cy="122" r="17" fill="#8a5320"/>
<text x="86" y="128" text-anchor="middle" font-size="19" font-weight="800" fill="#ffffff">1</text>
<g filter="url(#sh861)"><rect x="420" y="96" width="320" height="348" rx="28" fill="#ffffff"/></g>
<g transform="translate(470.0,160.0) scale(2.2)"><rect x="0" y="58" width="100" height="42" rx="2" fill="#4aa3d8"/><ellipse cx="50" cy="66" rx="36" ry="14" fill="#f0dca8"/><line x1="50" y1="64" x2="46" y2="26" stroke="#8d6042" stroke-width="5" stroke-linecap="round"/><path d="M 46 26 q -22 0 -26 14 q 18 -6 26 -8 Z" fill="#4caf50"/><path d="M 46 26 q 22 0 26 14 q -18 -6 -26 -8 Z" fill="#2e7d32"/><path d="M 46 26 q -6 -18 6 -22 q 4 14 -6 22 Z" fill="#4caf50"/><circle cx="80" cy="26" r="12" fill="#f7c948"/></g>
<circle cx="446" cy="122" r="17" fill="#8a5320"/>
<text x="446" y="128" text-anchor="middle" font-size="19" font-weight="800" fill="#ffffff">2</text>
<text x="400" y="512" text-anchor="middle" font-size="34" font-weight="800" fill="#8a5320">Home and Living</text>
<text x="400" y="548" text-anchor="middle" font-size="17" font-weight="600" letter-spacing="3" fill="#8a5320" opacity="0.55">A2 &#183; SPREEKEXAMEN</text>
</svg>
